# xmcd CD database file
#
# Track frame offsets:
#	150
#	11775
#	21285
#	32677
#	45920
#	55685
#	65517
#	77397
#	90135
#	103352
#	112665
#	123147
#	138730
#	150285
#	160882
#	171435
#	181852
#	192917
#	202635
#	217827
#	227160
#	238552
#	250457
#	260565
#	272277
#	283652
#	293505
#	304655
#	314640
#
# Disc length: 4370 seconds
#
# Revision: 1
# Processed by: cddbd v1.5.2PL0 Copyright (c) Steve Scherf et al.
# Submitted via: CDex 1.70beta2
#
DISCID=7a11101d
DTITLE=Lucille Starr and Canadian Sweethearts - Side By Side (1967) and Lonely Street (1969) - Lonely Street and Side by Side (2004)
DYEAR=1967
DGENRE=Country
TTITLE0=Heartaches By The Number (Harlan Howard)
TTITLE1=Looking Back To See (Jim and Maxine Brown)
TTITLE2=I Love You (Billy Barton)
TTITLE3=Have I Told You Lately That I Love You (Scott Wiseman)
TTITLE4=Are You Mine (J.Amadeo-M.Petrunka-Don Grashey)
TTITLE5=True Love (Cole Porter)
TTITLE6=Winchester Cathedral (Goeff Stephens)
TTITLE7=I Said My Pajamas (And Put On My Prayers) (E.Pola-G.Wyle)
TTITLE8=Canadian Sunset (Norman Gimbel-Eddie Heywood)
TTITLE9=Side By Side (Harry Woods)
TTITLE10=Lonely Street (Carl Belew-W.S.Stevenson)
TTITLE11=Too Far Gone (Billy Sherrill)
TTITLE12=Missing You (Red Sovine-Dale E. Noe)
TTITLE13=If I Give My Heart To You (Jimmy Brewster-Jimmie Crane)
TTITLE14=Who's Gonna Stand By Me (Jimmy Basile)
TTITLE15=Searching (For Someone Like You) (Murphy Maddux Jr.)
TTITLE16=Hello Sadness (Bonjour Tristesse) (Roy Baham-Jimmy Newmann)
TTITLE17=Cajun Love (Bob Regan-Lucille Starr)
TTITLE18=Someone Up There Still Loves Me (Roy Baham-Gene Norell)
TTITLE19=Full House (Glenn Sutton-Lucille Starr)
TTITLE20=Cry, Cry Darlin' (Jimmy Newman-J.D.Miller)
TTITLE21=(bonus track) I Don't Trust Me Around You (Bill Owens) (1967)
TTITLE22=(bonus track) More Than Money Can Buy (Bob Regan) (1967)
TTITLE23=(bonus track) Let's Wait A Little Longer (Claude Putman-Billy Sherrill) (1967)
TTITLE24=(bonus track) Before The Next Teardrop Falls (Ben Peters-Vivian Keith) (1967)
TTITLE25=(bonus track) Too Lonely Too Long (Dolly Parton) (1967)
TTITLE26=(bonus track)  Is It Love (R.Buzzeo) (1967)
TTITLE27=(bonus track)  Hey Sue (Dorsey and Johnny Burnette) (1968)
TTITLE28=You Were Worth The Wait (Jean Whitehead-Ricci Mareno) (1968)
EXTD=YEAR: 1967
EXTT0=
EXTT1=
EXTT2=
EXTT3=
EXTT4=
EXTT5=
EXTT6=
EXTT7=
EXTT8=
EXTT9=
EXTT10=
EXTT11=
EXTT12=
EXTT13=
EXTT14=
EXTT15=
EXTT16=
EXTT17=
EXTT18=
EXTT19=
EXTT20=
EXTT21=
EXTT22=
EXTT23=
EXTT24=
EXTT25=
EXTT26=
EXTT27=
EXTT28=
PLAYORDER=
